<?xml version="1.0" encoding="UTF-8"?><svg id="Layer_2" xmlns="http://www.w3.org/2000/svg" viewBox="0 0 410.49 71"><defs><style>.cls-1{fill:none;}.cls-2{fill:#023183;}</style></defs><g id="Layer_1-2"><rect class="cls-1" y="5.6" width="410.49" height="37.3"/><path class="cls-2" d="M4.2,34.4c-1,0-1.44-.44-1.44-1.44V7.04c0-1,.44-1.44,1.44-1.44h4.16c1.04,0,1.68.28,2.36,1.08l7.76,8.88V7.04c0-1,.44-1.44,1.44-1.44h6c1,0,1.44.44,1.44,1.44v25.92c0,1-.44,1.44-1.44,1.44h-6c-1,0-1.44-.44-1.44-1.44v-4.92l-6.84-8.28v13.2c0,1-.44,1.44-1.44,1.44h-6Z"/><path class="cls-2" d="M44.88,35c-10,0-12.44-3.28-12.44-8.16v-13.64c0-4.88,2.44-8.2,12.44-8.2s12.4,3.32,12.4,8.2v13.64c0,4.88-2.4,8.16-12.4,8.16ZM44.88,27.28c2.92,0,3.36-.8,3.36-1.88v-10.76c0-1.04-.44-1.84-3.36-1.84s-3.36.8-3.36,1.84v10.76c0,1.08.48,1.88,3.36,1.88Z"/><path class="cls-2" d="M63.8,34.4c-1,0-1.44-.44-1.44-1.44V7.04c0-1,.44-1.44,1.44-1.44h18.56c1,0,1.44.44,1.44,1.44v4.68c0,1-.44,1.44-1.44,1.44h-11.04v3.08h7.8c1,0,1.44.44,1.44,1.44v4.28c0,1-.44,1.44-1.44,1.44h-7.8v3.44h11.04c1,0,1.44.44,1.44,1.44v4.68c0,1-.44,1.44-1.44,1.44h-18.56Z"/><path class="cls-2" d="M89.96,34.4c-1,0-1.44-.44-1.44-1.44V7.04c0-1,.44-1.44,1.44-1.44h6.2c1,0,1.44.44,1.44,1.44v19.8h5.48v-6.48c0-1,.44-1.44,1.44-1.44h5.8c1,0,1.44.44,1.44,1.44v12.6c0,1-.44,1.44-1.44,1.44h-20.36Z"/><path class="cls-2" d="M122.44,34.4c-1.04,0-1.44-.44-1.44-1.44v-5.12l-6.12-8.2c-1.24-1.64-1.52-2.44-1.52-4.92v-7.68c0-1,.44-1.44,1.44-1.44h6.16c1,0,1.44.44,1.44,1.44v6.56c0,.56,0,1.12.36,1.68l1.84,2.88c.28.48.52.68.96.68h.4c.44,0,.68-.2.96-.68l1.84-2.88c.36-.56.36-1.12.36-1.68v-6.56c0-1,.44-1.44,1.44-1.44h5.96c1,0,1.44.44,1.44,1.44v7.68c0,2.48-.32,3.28-1.52,4.92l-6.08,8.24v5.08c0,1-.44,1.44-1.44,1.44h-6.48Z"/><path class="cls-2" d="M143.96,34.4c-1,0-1.44-.44-1.44-1.44V7.04c0-1,.44-1.44,1.44-1.44h4.16c1.04,0,1.68.28,2.36,1.08l7.76,8.88V7.04c0-1,.44-1.44,1.44-1.44h6c1,0,1.44.44,1.44,1.44v25.92c0,1-.44,1.44-1.44,1.44h-6c-1,0-1.44-.44-1.44-1.44v-4.92l-6.84-8.28v13.2c0,1-.44,1.44-1.44,1.44h-6Z"/><path class="cls-2" d="M191.36,34.4c-1,0-1.44-.44-1.44-1.44v-4.68c0-1,.44-1.44,1.44-1.44h10.76c.68,0,1.04-.52,1.04-1.16,0-.92-.36-1.28-1.04-1.36l-6-.84c-3.76-.56-6.2-2.16-6.2-6.64v-4.2c0-4.56,3.08-7.04,8.28-7.04h11.2c1,0,1.44.44,1.44,1.44v4.76c0,1-.44,1.44-1.44,1.44h-9.32c-.68,0-1.08.48-1.08,1.2s.4,1.2,1.08,1.28l5.96.8c3.76.56,6.24,2.16,6.24,6.64v4.2c0,4.56-3.12,7.04-8.28,7.04h-12.64Z"/><path class="cls-2" d="M223.36,34.4c-1,0-1.44-.44-1.44-1.44V13.32h-5.88c-1,0-1.44-.44-1.44-1.44v-4.84c0-1,.44-1.44,1.44-1.44h21.12c1,0,1.44.44,1.44,1.44v4.84c0,1-.44,1.44-1.44,1.44h-5.88v19.64c0,1-.44,1.44-1.44,1.44h-6.48Z"/><path class="cls-2" d="M243.92,34.4c-1,0-1.44-.44-1.44-1.44V7.04c0-1,.44-1.44,1.44-1.44h18.56c1,0,1.44.44,1.44,1.44v4.68c0,1-.44,1.44-1.44,1.44h-11.04v3.08h7.8c1,0,1.44.44,1.44,1.44v4.28c0,1-.44,1.44-1.44,1.44h-7.8v3.44h11.04c1,0,1.44.44,1.44,1.44v4.68c0,1-.44,1.44-1.44,1.44h-18.56Z"/><path class="cls-2" d="M270.08,34.4c-1,0-1.44-.44-1.44-1.44V7.04c0-1,.44-1.44,1.44-1.44h12.24c7.28,0,9.44,3.16,9.44,7.8v5.12c0,4.64-2.16,7.8-9.44,7.8h-4.6v6.64c0,1-.44,1.44-1.44,1.44h-6.2ZM277.63,19.12h3.6c1.56,0,1.88-.92,1.88-1.96v-2.12c0-1.04-.32-1.96-1.88-1.96h-3.6v6.04Z"/><path class="cls-2" d="M297.36,34.4c-1,0-1.44-.44-1.44-1.44V7.04c0-1,.44-1.44,1.44-1.44h6.2c1,0,1.44.44,1.44,1.44v8.68h6.68V7.04c0-1,.44-1.44,1.44-1.44h6.2c1,0,1.44.44,1.44,1.44v25.92c0,1-.44,1.44-1.44,1.44h-6.2c-1,0-1.44-.44-1.44-1.44v-8.88h-6.68v8.88c0,1-.44,1.44-1.44,1.44h-6.2Z"/><path class="cls-2" d="M327.72,34.4c-1,0-1.44-.44-1.44-1.44V7.04c0-1,.44-1.44,1.44-1.44h18.56c1,0,1.44.44,1.44,1.44v4.68c0,1-.44,1.44-1.44,1.44h-11.04v3.08h7.8c1,0,1.44.44,1.44,1.44v4.28c0,1-.44,1.44-1.44,1.44h-7.8v3.44h11.04c1,0,1.44.44,1.44,1.44v4.68c0,1-.44,1.44-1.44,1.44h-18.56Z"/><path class="cls-2" d="M353.88,34.4c-1,0-1.44-.44-1.44-1.44V7.04c0-1,.44-1.44,1.44-1.44h4.16c1.04,0,1.68.28,2.36,1.08l7.76,8.88V7.04c0-1,.44-1.44,1.44-1.44h6c1,0,1.44.44,1.44,1.44v25.92c0,1-.44,1.44-1.44,1.44h-6c-1,0-1.44-.44-1.44-1.44v-4.92l-6.84-8.28v13.2c0,1-.44,1.44-1.44,1.44h-6Z"/><path class="cls-2" d="M383.28,34.4c-1,0-1.44-.44-1.44-1.44v-4.68c0-1,.44-1.44,1.44-1.44h10.76c.68,0,1.04-.52,1.04-1.16,0-.92-.36-1.28-1.04-1.36l-6-.84c-3.76-.56-6.2-2.16-6.2-6.64v-4.2c0-4.56,3.08-7.04,8.28-7.04h11.2c1,0,1.44.44,1.44,1.44v4.76c0,1-.44,1.44-1.44,1.44h-9.32c-.68,0-1.08.48-1.08,1.2s.4,1.2,1.08,1.28l5.96.8c3.76.56,6.24,2.16,6.24,6.64v4.2c0,4.56-3.12,7.04-8.28,7.04h-12.64Z"/></g></svg>