<?xml version="1.0" encoding="UTF-8"?>
<svg id="Layer_3" xmlns="http://www.w3.org/2000/svg" version="1.1" viewBox="0 0 362 225.6">
  <!-- Generator: Adobe Illustrator 29.3.1, SVG Export Plug-In . SVG Version: 2.1.0 Build 151)  -->
  <defs>
    <style>
      .st0 {
        fill: #023183;
      }

      .st1 {
        fill: #fff;
        stroke: #023183;
        stroke-miterlimit: 10;
        stroke-width: .5px;
      }
    </style>
  </defs>
  <path class="st0" d="M155.4,221.3c-2.3-4-4.1-8.2-4.9-12.4-1.6-8.4-.7-17.1.8-25.5-.9-.2-1,.4-1.5.7-7.9,6.1-12.9,11.8-22.2,16.8-27.7,15.1-56.6,17.1-76-11.1-5.8-8.4-16.5-30.9-24.4-35.6-8.7-5.1-20.4,2.5-19.2,12.7.5,3.9,4,8.9,8.1,9.4,12.1,1.4,9.9-17.4-1.7-12,.6-2.8,4.2-3.3,6.6-2.9,11.1,1.8,10.2,19.7-2.9,20.9-22,2-25.4-33.2-2.5-40,35-10.4,41.8,50.8,72.9,47.9,10.6-1,23.9-9.8,30.8-17.7,1.2-1.4,8.4-10.7,7.5-11.7-8.5-2.2-16.5-4-25.1-.9-12,4.2-17.8,15.3-20.9,26.9-1,.8-11.4-6.2-12.1-8.1-.6-1.5,2-9,2.8-11,7.4-20,22.5-30.8,44.1-29.9,7.8.3,18.1,3,25.5.5,10.9-3.6-1.8-13.7-2.2-19.3-.2-2.4.8-3.9,1-5.9.2-3.1-4.4-9.7-5.9-13.1C118.3,64.9,129.9,6.2,174.2.5c53.3-6.9,71.7,60.4,53.1,100.6-2,4.3-5.9,8.4-5.4,13.1.2,2.2,1.3,3.2.9,5.9-.9,5.7-12.6,13.4-2.6,18.3,6.7,3.2,17.8-.8,25.4-.9,20.8-.3,36.4,9.7,44.1,28.9,1,2.6,4.3,11.3,2.6,13.4-.7.8-8.5,6.4-9.8,7.2-.5.3-.9.7-1.7.6h0c-4.6-23-23.4-34.7-46-26.5-1,1.2,6.4,10.6,7.7,12,5.9,6.5,15.5,13.4,24,16,36.9,11.1,39.7-50.5,75-47.5,15.1,1.3,25.1,18.3,18,32-4,7.9-15.1,12.4-22.5,6.5-10.1-8,.2-25.1,10.7-15.7-1,.5-2.1-.6-3.3-.7-8.6-1-9.7,12.1-1.5,13,11,1.2,14.3-15.2,4.9-21.4-16.8-11.2-29,21.4-35.7,31.7-18.2,28.1-43,30.5-72.4,17.3-12.3-5.5-18.1-12-28.2-19.8-.5-.4-.6-1-1.5-.7,3.1,11.2,2.3,22.8-1.9,33.4"/>
  <path class="st0" d="M29.9,206.9c0-2.8.7-7.1-2.9-7.9-7-1.6-7.8,7.1-3.4,11.4,10.1,9.8,29.3,4.1,35.6-7.6l10.1,6.8c-9.8,13.9-29.4,21.5-44.6,11.2-7.1-4.8-14-16.8-6-23.8,8.1-7.2,19.2,2.7,11.2,9.9h0Z"/>
  <path class="st0" d="M331.9,206.9c-7.5-6.5,1.7-16.3,10-10.7,7.5,5,4.8,15.4-.5,21-14.1,15.1-38.4,8.1-48.9-7.5l9.6-6.7c5.2,6.1,10.9,11.3,19.2,12.3,6,.7,15.1-1.2,18.3-6.9,6.3-11.3-10.9-12.9-7.7-1.4h0Z"/>
  <ellipse class="st1" cx="142.6" cy="118.3" rx="2.7" ry="4.8"/>
  <ellipse class="st1" cx="219.1" cy="118.3" rx="2.7" ry="4.8"/>
  <ellipse class="st0" cx="142.2" cy="118.9" rx="1.7" ry="2.6"/>
  <ellipse class="st0" cx="219.6" cy="119" rx="1.7" ry="2.6"/>
</svg>