<svg xmlns="http://www.w3.org/2000/svg" xmlns:xlink="http://www.w3.org/1999/xlink" viewBox="0 0 316.74 454.75"><defs><style>.cls-1,.cls-3,.cls-4,.cls-5{fill:none;}.cls-2{clip-path:url(#clip-path);}.cls-3,.cls-4{stroke:#000;}.cls-3{stroke-width:0.26px;}.cls-4{stroke-width:0.26px;}.cls-5{stroke:#ffd314;stroke-miterlimit:10;}.cls-6{fill:#006b00;}.cls-7{fill:#69bb00;}.cls-8{fill:#01c4f2;}</style><clipPath id="clip-path" transform="translate(3.73 54)"><rect class="cls-1" width="310" height="346"/></clipPath></defs><title>homePortrait</title><g id="Layer_4" data-name="Layer 4"><g class="cls-2"><line class="cls-3" x1="42.99" x2="42.99" y2="35.9"/><line class="cls-3" x1="3.73" y1="400.9" x2="29.91" y2="400.9"/><line class="cls-3" x1="42.99" y1="454.75" x2="42.99" y2="418.85"/><line class="cls-3" x1="273.47" x2="273.47" y2="35.9"/><line class="cls-3" x1="312.73" y1="400.9" x2="286.56" y2="400.9"/><line class="cls-3" x1="273.47" y1="454.75" x2="273.47" y2="418.85"/><line class="cls-4" x1="43.12" x2="43.12" y2="35.68"/><line class="cls-4" x1="3.73" y1="398.48" x2="29.99" y2="398.48"/><line class="cls-4" x1="43.12" y1="452" x2="43.12" y2="416.32"/><line class="cls-4" x1="274.34" x2="274.34" y2="35.68"/><line class="cls-4" x1="313.73" y1="398.48" x2="287.47" y2="398.48"/><line class="cls-4" x1="274.34" y1="452" x2="274.34" y2="416.32"/><line class="cls-3" x1="3.73" y1="53.85" x2="29.91" y2="53.85"/><line class="cls-3" x1="312.73" y1="53.85" x2="286.56" y2="53.85"/><line class="cls-4" x1="3.73" y1="53.52" x2="29.99" y2="53.52"/><line class="cls-4" x1="313.73" y1="53.52" x2="287.47" y2="53.52"/><line class="cls-5" x1="243.23" y1="110.5" x2="270.23" y2="146.5"/><line class="cls-5" x1="271.23" y1="147.5" x2="313.23" y2="156.5"/><line class="cls-5" x1="292.23" y1="106.5" x2="277.23" y2="75.5"/><line class="cls-5" x1="19.23" y1="174.5" x2="52.23" y2="135.5"/><line class="cls-5" x1="17.23" y1="175.5" x2="3.23" y2="174.5"/><line class="cls-5" x1="208.23" y1="159.5" x2="235.23" y2="198.5"/><line class="cls-5" x1="280.23" y1="210.5" x2="276.23" y2="286.5"/><line class="cls-5" x1="148.23" y1="336.5" x2="129.23" y2="399.5"/><line class="cls-5" x1="278.23" y1="291.5" x2="313.23" y2="398.5"/><line class="cls-5" x1="38.23" y1="308.5" x2="3.23" y2="321.5"/><line class="cls-5" x1="27.23" y1="371.5" x2="3.23" y2="362.5"/><line class="cls-5" x1="238.23" y1="202.5" x2="281.23" y2="209.5"/><path class="cls-6" d="M309,233.1V345H23.67l-2.09-6.25,5.53-2.42C61.5,314.5,96.5,292.5,136.93,284.49c2.77-.69,5.52-1.39,8.24-2.13,10.89-2.93,21.34-6.41,31.37-11.52l9.27-4.06L199,261l8.44-2.07c2.64-.65,5.81-1.43,9.39-2.39C246.28,244,277,234.3,309,233.1Z" transform="translate(3.73 54)"/><path class="cls-7" d="M309,229v4.12C277,234.3,246.28,244,216.83,256.54c-3.58,1-6.75,1.74-9.39,2.39L199,261l-13.19,5.78-9.27,4.06c-10,5.11-20.48,8.59-31.37,11.52-2.72.74-5.47,1.44-8.24,2.13-40.43,8-75.43,30-109.82,51.84l-5.53,2.42L19,331l5.23-2.2c38.27-22.3,75.27-45.3,118.24-53.16,2.87-.78,5.74-1.55,8.59-2.35a170.06,170.06,0,0,0,25.22-8.7l9.39-4L199,255l8.37-1.93C240.56,240.84,273.63,229.16,309,229Z" transform="translate(3.73 54)"/><path class="cls-6" d="M142.5,198.57c7.35,1.06,15.19,3.92,23.63,3.35,2.37,9.58,8.37,17.58,11.79,28-1.42-9.42-3.42-19.42-4.45-28.76,11-16.66,27-28.66,42.72-40.17a49.66,49.66,0,0,0,5.09,1.24c1.42.27,2.84.5,4.26.68,3.29.44,6.58.69,9.8,1,2.1.18,4.16.37,6.16.62,8,0,16,2,23.71.68,9-7.26,18.39-14.2,28.89-19.52a94.31,94.31,0,0,1,14.9-6.08V229c-35.37.18-68.44,11.86-101.63,24.09L199,255l-13.33,5.63-9.39,4a170.06,170.06,0,0,1-25.22,8.7c-2.85.8-5.72,1.57-8.59,2.35-43,7.86-80,30.86-118.24,53.16L19,331s2-5.5,4-11l4-11C26.5,301.5,31.5,293.5,30.72,286q.71-4,1.33-8.09t1.17-8.11c.48-3.6.9-7.21,1.25-10.8A105.14,105.14,0,0,0,35.29,241c4.22.36,9.1.48,13.72,1.51a29.44,29.44,0,0,1,4.46,1.35c.24-.36.49-.71.74-1.06a52.79,52.79,0,0,1,5-6c6.18-6.4,13.4-11.1,19.8-16.41q3.81-2.73,7.77-5.24t7.91-4.71h0l.14-.08s0,0,0,0a153.77,153.77,0,0,1,12.86-9.21c2-1.33,3.94-2.72,5.93-4.25A39.14,39.14,0,0,0,117,194l13,2.33,12,2.17Z" transform="translate(3.73 54)"/><path class="cls-8" d="M309,122.88v16.7a94.31,94.31,0,0,0-14.9,6.08l-.08-.15,2.34-7.18c-11.86-2.83-24.86-4.83-36.6-6.82,13.74,0,26.74-1,41,1.72a20.79,20.79,0,0,0,4.67-5.3A58.9,58.9,0,0,1,309,122.88Z" transform="translate(3.73 54)"/><path class="cls-6" d="M309,28.18v94.7a58.9,58.9,0,0,0-3.58,5.05,20.79,20.79,0,0,1-4.67,5.3c-14.25-2.73-27.25-1.73-41-1.72,11.74,2,24.74,4,36.6,6.82L294,145.51l.08.15c-10.5,5.32-19.86,12.26-28.89,19.52-7.71,1.32-15.71-.68-23.71-.68-2-.25-4.06-.44-6.16-.62-3.22-.28-6.51-.53-9.8-1l.05-.38c2.13-2.85,4.14-5.73,6-8.67,1.23-1.79,2.42-3.62,3.58-5.45,1.73-2.76,3.39-5.55,5-8.36s3.23-5.62,4.85-8.41c3.41-5.14,5.41-10.14,9.24-15.11q2.47-3.84,5-7.66t5-7.65c14.17-24.72,25.17-50.72,44.44-73Z" transform="translate(3.73 54)"/><path class="cls-7" d="M309,24.42v3.76h-.23c-19.27,22.32-30.27,48.32-44.44,73q-2.52,3.82-5,7.65t-5,7.66c-3.83,5-5.83,10-9.24,15.11-1.62,2.79-3.22,5.61-4.85,8.41s-3.29,5.6-5,8.36c-1.16,1.83-2.35,3.66-3.58,5.45-1.91,2.94-3.92,5.82-6,8.67l-.05.38c-1.42-.18-2.84-.41-4.26-.68l.17-.91c2.05-5.82,7.05-8.82,8.85-13.7,1.44-2.36,2.91-4.69,4.4-7s3-4.64,4.53-6.94,3.06-4.6,4.6-6.89c6-8.43,11.64-17,17.21-25.63,1.86-2.88,3.7-5.79,5.47-8.84,13-23.8,24-47.8,42.26-67.88Z" transform="translate(3.73 54)"/><path class="cls-6" d="M145.05,196.41l.08-.07c6.37-4.84,10.37-10.84,16.21-15.26a245.6,245.6,0,0,0,5.5-24.38c5.66-7.2,11.66-13.2,15.51-20.9,1.4-2.19,2.76-4.43,4.06-6.71s2.53-4.58,3.68-6.92c1.4-1.77,2.85-3.51,4.34-5.2C201.5,108.5,209.5,101.5,218,93.68c6.35-10.12,12.46-20.6,18.77-30.81,1.58-2.56,3.16-5.09,4.77-7.6s3.17-5,4.7-7.52c19.11-18.09,36-35.94,58.2-48.75H309V24.42h-.23C290.5,44.5,279.5,68.5,266.51,92.3c-1.77,3-3.61,6-5.47,8.84-5.57,8.63-11.23,17.2-17.21,25.63-1.54,2.29-3.08,4.58-4.6,6.89s-3,4.61-4.53,6.94-3,4.66-4.4,7c-1.8,4.88-6.8,7.88-8.85,13.7l-.17.91a49.66,49.66,0,0,1-5.09-1.24c-15.69,11.51-31.69,23.51-42.72,40.17,1,9.34,3,19.34,4.45,28.76-3.42-10.42-9.42-18.42-11.79-28-8.44.57-16.28-2.29-23.63-3.35Z" transform="translate(3.73 54)"/><path class="cls-8" d="M153.86,173.87l-43.35-41.38h0l-7,14,3-15,.12-.58-45.95-9.78c.78-2.81,2.07-5.43,2.45-8.3-6.62,3.66-14.62,4.66-22.34,7.55C47.5,117.5,55.5,114.5,62,110A326.47,326.47,0,0,0,19.25,37.52q-2.89-3.66-5.92-7.26T7.16,23.09L1.81,14.63,0,11.75V-1H304.42c-22.22,12.81-39.09,30.66-58.2,48.75q-2.29,3.75-4.7,7.52c-1.61,2.51-3.19,5-4.77,7.6C230.44,73.08,224.33,83.56,218,93.68,209.5,101.5,201.5,108.5,194.43,117c-1.49,1.69-2.94,3.43-4.34,5.2q-1.72,3.51-3.68,6.92c-1.3,2.28-2.66,4.52-4.06,6.71-3.85,7.7-9.85,13.7-15.51,20.9a245.6,245.6,0,0,1-5.5,24.38c-5.84,4.42-9.84,10.42-16.21,15.26l-.08.07c.38-5.2-.5-9.07.95-13.42l.95-1.11.83-.95Z" transform="translate(3.73 54)"/><path class="cls-6" d="M110.51,132.49l43.35,41.38-6.08,7.06A17.42,17.42,0,0,1,146,178c-1-1.93-5.77-3.24-8.65-3.54l-9.4-1-6.86-.73c-9.06-.16-18.3-2.88-27.74-5.29-2.35-.6-4.73-1.19-7.11-1.71s-4.78-1-7.17-1.33h0a151.2,151.2,0,0,0-9.48-22.87c-1.35-2.57-2.79-5.1-4.35-7.58s-3.22-4.92-5-7.29a13.89,13.89,0,0,1,.51-5.54l46,9.78-.12.58-3,15,7-14Z" transform="translate(3.73 54)"/><path class="cls-7" d="M147.78,180.93l-.83.95c-.31-.72-2.13-4.6-5.95-4.88-2.12-.17-1.46-.93-4.27-1.16l-9.14-.74-6.69-.55a223.42,223.42,0,0,1-27.56-4.05l-6.74-1.38-6.43-1.33c-.37-1.13-.75-2.25-1.14-3.37h0c2.39.36,4.79.81,7.17,1.33s4.76,1.11,7.11,1.71c9.44,2.41,18.68,5.13,27.74,5.29l6.86.73,9.4,1c2.88.3,7.62,1.61,8.65,3.54A17.42,17.42,0,0,0,147.78,180.93Z" transform="translate(3.73 54)"/><path class="cls-6" d="M147,181.88,146,183c-1.45,4.35-.57,8.22-.95,13.42l-2.55,2.16-.5-.07-12-2.17L117,194a39.14,39.14,0,0,1-3.36,2.89c-2,1.53-4,2.92-5.93,4.25-10.43,5-6.84,5.84-14.54,4.88-2-5.23-4.17-10.49-5.84-15.73-.71-2.23-1.34-4.46-1.85-6.68-1.84-5.2-3.54-10.52-5.31-15.82l6.43,1.33,6.74,1.38a223.42,223.42,0,0,0,27.56,4.05l6.69.55,9.14.74c2.81.23,2.15,1,4.27,1.16C144.82,177.28,146.64,181.16,147,181.88Z" transform="translate(3.73 54)"/><path class="cls-8" d="M107.71,201.14a153.77,153.77,0,0,0-12.86,9.21Q94,208.19,93.17,206C100.87,207,97.28,206.17,107.71,201.14Z" transform="translate(3.73 54)"/><path class="cls-6" d="M93.17,206q.85,2.17,1.68,4.33a.63.63,0,0,0-.13.11h0q-4,2.24-7.91,4.71T79,220.42c-6.4,5.31-13.62,10-19.8,16.41a52.79,52.79,0,0,0-5,6q-1.91-4.85-3.56-9.77c-6.52-23.65-7.18-49.5-14.83-73.16a90.27,90.27,0,0,0-3.29-8.77A82.35,82.35,0,0,0,28,142.46C14.56,123,8.42,100.14,0,78.23V11.75l1.81,2.88,5.35,8.46q3.15,3.57,6.17,7.17t5.92,7.26A326.47,326.47,0,0,1,62,110c-6.47,4.55-14.47,7.55-21.19,10.44,7.72-2.89,15.72-3.89,22.34-7.55-.38,2.87-1.67,5.49-2.45,8.3a13.89,13.89,0,0,0-.51,5.54c1.82,2.37,3.49,4.81,5,7.29s3,5,4.35,7.58A151.2,151.2,0,0,1,79,164.42c.39,1.12.77,2.24,1.14,3.37,1.77,5.3,3.47,10.62,5.31,15.82.51,2.22,1.14,4.45,1.85,6.68C89,195.53,91.12,200.79,93.17,206Z" transform="translate(3.73 54)"/><path class="cls-7" d="M54.21,242.83c-.25.35-.5.7-.74,1.06A29.44,29.44,0,0,0,49,242.54l.13-.55q-2.19-4.73-4-9.57c-5.31-20.94-7.4-42.91-12.69-64-.76-3-1.58-6-2.48-9-1.42-6.9-5.42-11.9-7.31-17.86A440.5,440.5,0,0,1,0,85.7V78.23c8.42,21.91,14.56,44.8,28,64.23a82.35,82.35,0,0,1,4.49,8.67,90.27,90.27,0,0,1,3.29,8.77c7.65,23.66,8.31,49.51,14.83,73.16Q52.3,238,54.21,242.83Z" transform="translate(3.73 54)"/><path class="cls-6" d="M49.14,242l-.13.55c-4.62-1-9.5-1.15-13.72-1.51,0-1-.06-2-.1-3-.1-2.27-.23-4.52-.33-6.79-.36-4.78-1.36-8.78.22-14.06C23.5,214.5,14.5,206.5,4,200.37,5.5,189.5.5,179.5.13,169.9H0V85.7a440.5,440.5,0,0,0,22.61,55.84c1.89,6,5.89,11,7.31,17.86.9,3,1.72,6,2.48,9,5.29,21.11,7.38,43.08,12.69,64Q46.95,237.27,49.14,242Z" transform="translate(3.73 54)"/><path class="cls-6" d="M21.58,338.75,23.67,345H0V169.9H.13C.5,179.5,5.5,189.5,4,200.37c10.52,6.13,19.52,14.13,31.1,16.85-1.58,5.28-.58,9.28-.22,14.06.1,2.27.23,4.52.33,6.79,0,1,.08,2,.1,3A105.14,105.14,0,0,1,34.47,259c-.35,3.59-.77,7.2-1.25,10.8q-.54,4.07-1.17,8.11T30.72,286c.78,7.54-4.22,15.54-3.66,23.05l-4,11c-2,5.5-4,11-4,11Z" transform="translate(3.73 54)"/><path class="cls-5" d="M-3,7s1.1,1.73,3,4.75l1.81,2.88,5.35,8.46q3.15,3.57,6.17,7.17t5.92,7.26A326.47,326.47,0,0,1,62,110" transform="translate(3.73 54)"/><path class="cls-5" d="M94.86,210.38s0,0,0,0Q94,208.19,93.17,206c-2-5.23-4.17-10.49-5.84-15.73-.71-2.23-1.34-4.46-1.85-6.68-1.84-5.2-3.54-10.52-5.31-15.82-.37-1.13-.75-2.25-1.14-3.37a151.2,151.2,0,0,0-9.48-22.87c-1.35-2.57-2.79-5.1-4.35-7.58s-3.22-4.92-5-7.29" transform="translate(3.73 54)"/><path class="cls-5" d="M63.12,112.84c-.38,2.87-1.67,5.49-2.45,8.3a13.89,13.89,0,0,0-.51,5.54" transform="translate(3.73 54)"/><path class="cls-5" d="M94.71,210.47q-4,2.24-7.91,4.71T79,220.42c-6.4,5.31-13.62,10-19.8,16.41a52.79,52.79,0,0,0-5,6c-.25.35-.5.7-.74,1.06" transform="translate(3.73 54)"/><path class="cls-5" d="M94.86,210.38l-.14.08" transform="translate(3.73 54)"/><path class="cls-5" d="M.13,169.9C.5,179.5,5.5,189.5,4,200.37" transform="translate(3.73 54)"/><path class="cls-5" d="M35.08,217.22C23.5,214.5,14.5,206.5,4,200.37" transform="translate(3.73 54)"/><path class="cls-5" d="M27.06,309C26.5,301.5,31.5,293.5,30.72,286q.71-4,1.33-8.09t1.17-8.11c.48-3.6.9-7.21,1.25-10.8A105.14,105.14,0,0,0,35.29,241c0-1-.06-2-.1-3-.1-2.27-.23-4.52-.33-6.79-.36-4.78-1.36-8.78.22-14.06" transform="translate(3.73 54)"/><polyline class="cls-5" points="27.73 400 27.4 399 25.31 392.75 22.73 385"/><path class="cls-5" d="M27.06,309l-4,11c-2,5.5-4,11-4,11" transform="translate(3.73 54)"/><path class="cls-5" d="M53.47,243.89A29.44,29.44,0,0,0,49,242.54c-4.62-1-9.5-1.15-13.72-1.51l-.49,0" transform="translate(3.73 54)"/><path class="cls-5" d="M94.31,210.8l.4-.33h0a.63.63,0,0,1,.13-.11,153.77,153.77,0,0,1,12.86-9.21c2-1.33,3.94-2.72,5.93-4.25A39.14,39.14,0,0,0,117,194" transform="translate(3.73 54)"/><path class="cls-5" d="M166.13,201.92c-8.44.57-16.28-2.29-23.63-3.35l-.5-.07-12-2.17L117,194" transform="translate(3.73 54)"/><path class="cls-5" d="M216.19,161c-15.69,11.51-31.69,23.51-42.72,40.17" transform="translate(3.73 54)"/><path class="cls-5" d="M265.21,165.18c-7.71,1.32-15.71-.68-23.71-.68-2-.25-4.06-.44-6.16-.62-3.22-.28-6.51-.53-9.8-1-1.42-.18-2.84-.41-4.26-.68a49.66,49.66,0,0,1-5.09-1.24" transform="translate(3.73 54)"/><path class="cls-5" d="M309.81,139.33l-.81.25a94.31,94.31,0,0,0-14.9,6.08c-10.5,5.32-19.86,12.26-28.89,19.52" transform="translate(3.73 54)"/><polyline class="cls-5" points="149.73 236.99 150.68 235.88 151.51 234.93 157.59 227.87 157.64 227.81"/><path class="cls-5" d="M145,197c0-.2,0-.4.05-.59.38-5.2-.5-9.07.95-13.42" transform="translate(3.73 54)"/><path class="cls-5" d="M93,206l.17,0c7.7,1,4.11.15,14.54-4.88L108,201" transform="translate(3.73 54)"/><path class="cls-5" d="M142,199l.5-.43,2.55-2.16.08-.07c6.37-4.84,10.37-10.84,16.21-15.26" transform="translate(3.73 54)"/><path class="cls-5" d="M166.84,156.7a245.6,245.6,0,0,1-5.5,24.38" transform="translate(3.73 54)"/><path class="cls-5" d="M190.09,122.17q-1.72,3.51-3.68,6.92c-1.3,2.28-2.66,4.52-4.06,6.71-3.85,7.7-9.85,13.7-15.51,20.9" transform="translate(3.73 54)"/><path class="cls-5" d="M218,93.68C209.5,101.5,201.5,108.5,194.43,117c-1.49,1.69-2.94,3.43-4.34,5.2" transform="translate(3.73 54)"/><path class="cls-5" d="M246.22,47.75q-2.29,3.75-4.7,7.52c-1.61,2.51-3.19,5-4.77,7.6C230.44,73.08,224.33,83.56,218,93.68" transform="translate(3.73 54)"/><path class="cls-5" d="M305-1.34l-.58.34c-22.22,12.81-39.09,30.66-58.2,48.75" transform="translate(3.73 54)"/><path class="cls-5" d="M309.61,122.19c-.21.22-.41.45-.61.69a58.9,58.9,0,0,0-3.58,5.05,20.79,20.79,0,0,1-4.67,5.3" transform="translate(3.73 54)"/><path class="cls-5" d="M259.76,131.51c13.74,0,26.74-1,41,1.72" transform="translate(3.73 54)"/><path class="cls-5" d="M296.36,138.33c-11.86-2.83-24.86-4.83-36.6-6.82" transform="translate(3.73 54)"/><line class="cls-5" x1="297.75" y1="199.51" x2="300.09" y2="192.33"/><path class="cls-5" d="M19,331l5.23-2.2c38.27-22.3,75.27-45.3,118.24-53.16,2.87-.78,5.74-1.55,8.59-2.35a170.06,170.06,0,0,0,25.22-8.7l9.39-4L199,255" transform="translate(3.73 54)"/><path class="cls-5" d="M312,229c-1,0-2,0-3,0-35.37.18-68.44,11.86-101.63,24.09L199,255" transform="translate(3.73 54)"/><path class="cls-5" d="M21,339l.58-.25,5.53-2.42C61.5,314.5,96.5,292.5,136.93,284.49c2.77-.69,5.52-1.39,8.24-2.13,10.89-2.93,21.34-6.41,31.37-11.52l9.27-4.06L199,261" transform="translate(3.73 54)"/><path class="cls-5" d="M313,233c-1.34,0-2.67,0-4,.11C277,234.3,246.28,244,216.83,256.54c-3.58,1-6.75,1.74-9.39,2.39L199,261" transform="translate(3.73 54)"/><path class="cls-5" d="M221.45,161.32c2.05-5.82,7.05-8.82,8.85-13.7,1.44-2.36,2.91-4.69,4.4-7s3-4.64,4.53-6.94,3.06-4.6,4.6-6.89c6-8.43,11.64-17,17.21-25.63,1.86-2.88,3.7-5.79,5.47-8.84,13-23.8,24-47.8,42.26-67.88" transform="translate(3.73 54)"/><path class="cls-5" d="M225.59,162.53c2.13-2.85,4.14-5.73,6-8.67,1.23-1.79,2.42-3.62,3.58-5.45,1.73-2.76,3.39-5.55,5-8.36s3.23-5.62,4.85-8.41c3.41-5.14,5.41-10.14,9.24-15.11q2.47-3.84,5-7.66t5-7.65c14.17-24.72,25.17-50.72,44.44-73" transform="translate(3.73 54)"/><path class="cls-5" d="M79.8,167.71l.37.08,6.43,1.33,6.74,1.38a223.42,223.42,0,0,0,27.56,4.05l6.69.55,9.14.74c2.81.23,2.15,1,4.27,1.16,3.82.28,5.64,4.16,5.95,4.88l.05.12" transform="translate(3.73 54)"/><path class="cls-5" d="M79.07,164.41c2.39.36,4.79.81,7.17,1.33s4.76,1.11,7.11,1.71c9.44,2.41,18.68,5.13,27.74,5.29l6.86.73,9.4,1c2.88.3,7.62,1.61,8.65,3.54a17.42,17.42,0,0,0,1.78,2.93c.22.24.22.07.22.07" transform="translate(3.73 54)"/><path class="cls-5" d="M49.14,242q-2.19-4.73-4-9.57c-5.31-20.94-7.4-42.91-12.69-64-.76-3-1.58-6-2.48-9-1.42-6.9-5.42-11.9-7.31-17.86" transform="translate(3.73 54)"/><path class="cls-5" d="M-3.25,75.05Q-1.71,80.42,0,85.7a440.5,440.5,0,0,0,22.61,55.84" transform="translate(3.73 54)"/><path class="cls-5" d="M54.21,242.83q-1.91-4.85-3.56-9.77c-6.52-23.65-7.18-49.5-14.83-73.16a90.27,90.27,0,0,0-3.29-8.77A82.35,82.35,0,0,0,28,142.46" transform="translate(3.73 54)"/><path class="cls-5" d="M-2,73.06q1,2.58,2,5.17c8.42,21.91,14.56,44.8,28,64.23" transform="translate(3.73 54)"/><path class="cls-5" d="M177.92,229.92c-3.42-10.42-9.42-18.42-11.79-28" transform="translate(3.73 54)"/><path class="cls-5" d="M173.47,201.16c1,9.34,3,19.34,4.45,28.76" transform="translate(3.73 54)"/><path class="cls-5" d="M40.78,120.39C47.5,117.5,55.5,114.5,62,110" transform="translate(3.73 54)"/><path class="cls-5" d="M63.12,112.84c-6.62,3.66-14.62,4.66-22.34,7.55" transform="translate(3.73 54)"/><polyline class="cls-5" points="63.73 175 64.4 175.14 110.35 184.92 110.73 185"/><polyline class="cls-5" points="113.73 186 114.24 186.49 157.59 227.87 157.73 228"/><line class="cls-5" x1="110.23" y1="185.5" x2="107.23" y2="200.5"/><line class="cls-5" x1="114.23" y1="186.5" x2="107.23" y2="200.5"/><line class="cls-5" x1="75.23" y1="279.5" x2="146.23" y2="329.5"/><line class="cls-5" x1="37.23" y1="225.5" x2="4.23" y2="225.5"/><line class="cls-5" x1="97.23" y1="181.5" x2="80.23" y2="210.5"/><line class="cls-5" x1="120.23" y1="226.5" x2="143.23" y2="214.5"/><line class="cls-5" x1="125.23" y1="248.5" x2="120.23" y2="228.5"/><line class="cls-5" x1="42.23" y1="223.5" x2="72.23" y2="193.5"/><line class="cls-5" x1="51.23" y1="275.5" x2="87.23" y2="232.5"/><line class="cls-5" x1="45.23" y1="275.5" x2="37.23" y2="274.5"/><line class="cls-5" x1="170.23" y1="210.5" x2="191.23" y2="237.5"/><line class="cls-5" x1="184.23" y1="245.5" x2="221.23" y2="303.5"/><line class="cls-5" x1="148.23" y1="336.5" x2="136.23" y2="399.5"/><line class="cls-5" x1="280.23" y1="210.5" x2="315.23" y2="261.5"/><line class="cls-5" x1="223.23" y1="309.5" x2="215.23" y2="399.5"/><line class="cls-5" x1="231.23" y1="205.5" x2="201.23" y2="168.5"/><line class="cls-5" x1="259.23" y1="161.5" x2="234.23" y2="126.5"/><line class="cls-5" x1="286.23" y1="117.5" x2="265.23" y2="87.5"/><line class="cls-5" x1="303.23" y1="90.5" x2="289.23" y2="65.5"/><line class="cls-5" x1="234.23" y1="208.5" x2="267.23" y2="219.5"/><line class="cls-5" x1="261.23" y1="163.5" x2="313.23" y2="175.5"/><line class="cls-5" x1="287.23" y1="118.5" x2="313.23" y2="124.5"/><line class="cls-5" x1="304.23" y1="91.5" x2="313.23" y2="94.5"/><line class="cls-5" x1="23.23" y1="182.5" x2="58.23" y2="147.5"/><line class="cls-5" x1="6.23" y1="140.5" x2="35.23" y2="108.5"/><line class="cls-5" x1="21.23" y1="183.5" x2="3.23" y2="186.5"/><line class="cls-5" x1="25.23" y1="265.5" x2="3.23" y2="283.5"/><line class="cls-5" x1="39.23" y1="301.5" x2="3.23" y2="332.5"/><line class="cls-5" x1="30.23" y1="361.5" x2="3.23" y2="385.5"/></g></g></svg>