<?xml version="1.0" encoding="utf-8"?>
<!-- Generator: Adobe Illustrator 22.1.0, SVG Export Plug-In . SVG Version: 6.00 Build 0)  -->
<svg version="1.1" xmlns="http://www.w3.org/2000/svg" xmlns:xlink="http://www.w3.org/1999/xlink" x="0px" y="0px"
	 viewBox="0 0 1125 1400" style="enable-background:new 0 0 1125 1400;" xml:space="preserve">
<style type="text/css">
	.st0{fill:#95D8EB;}
	.st1{fill:#4DB4D7;}
	.st2{fill:#0076BE;}
	.st3{fill:#D5C799;}
	.st4{fill:#FFF5EF;}
	.st5{fill:#C3B27F;}
	.st6{fill:#613B16;}
	.st7{fill:#A67B51;}
	.st8{fill:#48BB48;}
	.st9{fill:#1F6B1F;}
</style>
<g id="Layer_4">
</g>
<g id="Layer_3">
</g>
<g id="Layer_2">
</g>
<g id="Layer_5">
	
		<rect x="406.2" y="349" transform="matrix(0.9528 0.3035 -0.3035 0.9528 216.0286 -173.3155)" class="st0" width="518.9" height="518.9"/>
	
		<rect x="547.2" y="-129" transform="matrix(0.9528 0.3035 -0.3035 0.9528 77.6246 -238.6432)" class="st0" width="518.9" height="518.9"/>
	
		<rect x="330.3" y="15.8" transform="matrix(0.7518 0.6594 -0.6594 0.7518 341.2339 -326.6593)" class="st1" width="548.4" height="548.4"/>
	
		<rect x="648.3" y="591.8" transform="matrix(0.7518 0.6594 -0.6594 0.7518 799.9838 -393.3796)" class="st1" width="548.4" height="548.4"/>
	
		<rect x="715.9" y="13.4" transform="matrix(0.3698 0.9291 -0.9291 0.3698 983.616 -756.441)" class="st2" width="667.1" height="667.1"/>
	
		<rect x="-57.9" y="226.5" transform="matrix(0.1813 0.9834 -0.9834 0.1813 771.6681 187.8954)" class="st2" width="661.7" height="661.7"/>
	
		<rect x="-74.9" y="713.4" transform="matrix(0.8062 0.5916 -0.5916 0.8062 680.5448 44.3052)" class="st0" width="695.1" height="695.1"/>
	
		<rect x="-44.8" y="-148" transform="matrix(0.9528 0.3035 -0.3035 0.9528 43.943 -59.8921)" class="st0" width="518.9" height="518.9"/>
	<polygon class="st3" points="601.1,1152.9 390.8,1826.5 -87.5,1307.6 	"/>
	<polygon class="st4" points="1088.4,1281.8 543.8,1730.7 427.3,1034.6 	"/>
	<polygon class="st5" points="1303.8,924.9 1067.1,1589.8 609.6,1052.3 	"/>
	<g>
		<polygon class="st6" points="510.3,840.6 407.7,733.1 552.1,698 		"/>
	</g>
	<g>
		<polygon class="st7" points="603.2,987.2 402.2,1024.1 470.7,831.5 		"/>
	</g>
	<g>
		<polygon class="st7" points="566.6,710.7 664.8,796.9 529.8,836.1 		"/>
	</g>
	<g>
		<polygon class="st6" points="425.1,720.2 485.4,495 650.2,659.8 		"/>
	</g>
	<g>
		<polygon class="st6" points="601.3,968.9 494.8,852 649.3,818.3 		"/>
	</g>
	<g>
		<polygon class="st6" points="514.4,1154.8 562.4,1004.2 668.8,1121 		"/>
	</g>
	<g>
		<polygon class="st6" points="501.4,1154.6 398.9,1034.2 554.4,1005.7 		"/>
	</g>
	<path class="st8" d="M479.6,458.8c0,0,99.1-133-16.8-171.3C372.3,257.6,416.8,416.9,479.6,458.8z"/>
	<path class="st8" d="M533.6,491.7c0,0,184.1-41,170,97.1C692.5,696.6,547.8,576.3,533.6,491.7z"/>
	<path class="st8" d="M458.4,511.4c0,0-166,14.5-117.3,127C379.2,726.2,469,586.4,458.4,511.4z"/>
	<path class="st9" d="M464.8,483.2c0,0-112.5-151.3-192-37.6C210.7,534.4,398.8,537.9,464.8,483.2z"/>
	<path class="st9" d="M504.4,465.1c0,0,22.1-172.7,137.6-117.1C732.1,391.4,582.3,479.3,504.4,465.1z"/>
</g>
</svg>
